<svg width="3246" height="2017" viewBox="0 0 3246 2017" fill="none" xmlns="http://www.w3.org/2000/svg">
<rect width="3246" height="2016" fill="#2D46B9"/>
<path d="M2792.63 1014.69C3043.02 1014.69 3246 813.508 3246 565.343C3246 317.178 3043.02 116 2792.63 116C2542.25 116 2339.27 317.178 2339.27 565.343C2339.27 813.508 2542.25 1014.69 2792.63 1014.69Z" fill="#1ED760"/>
<path d="M637.128 2016.01C989.004 2016.01 1274.26 1730.76 1274.26 1378.88C1274.26 1027 989.004 741.751 637.128 741.751C285.252 741.751 0 1027 0 1378.88C0 1730.76 285.252 2016.01 637.128 2016.01Z" fill="#1ED760"/>
<path d="M608.96 906.734C712.671 906.734 796.746 822.66 796.746 718.949C796.746 615.238 712.671 531.164 608.96 531.164C505.25 531.164 421.175 615.238 421.175 718.949C421.175 822.66 505.25 906.734 608.96 906.734Z" fill="#1ED760"/>
<mask id="mask0_22_127" style="mask-type:alpha" maskUnits="userSpaceOnUse" x="0" y="741" width="1275" height="1276">
<path d="M637.128 2016.01C989.004 2016.01 1274.26 1730.76 1274.26 1378.88C1274.26 1027 989.004 741.751 637.128 741.751C285.252 741.751 0 1027 0 1378.88C0 1730.76 285.252 2016.01 637.128 2016.01Z" fill="#1ED760"/>
</mask>
<g mask="url(#mask0_22_127)">
<path d="M608.96 906.734C712.671 906.734 796.746 822.66 796.746 718.949C796.746 615.238 712.671 531.164 608.96 531.164C505.25 531.164 421.175 615.238 421.175 718.949C421.175 822.66 505.25 906.734 608.96 906.734Z" fill="#2D46B9"/>
</g>
</svg>
